@startuml
'https://plantuml.com/class-diagram

class ConsultarPedidosUI

class ConsultarPedidosController{
+getPedidosUser()
+pedidosEmCurso(listaPedidosUser)
+pedidosHistorico(listaPedidosUser)
}

class AutzhRegistry{
+authorizationService()
}

class AuthorizationService{
+session()
}

class UserSession{
+authenticatedUser()
}

class SystemUser{
+email()
}

class PersistenceContext{
+repositories()
}

class RepositoryFactory{
+create()
}

database CatalogoRepository{
}

class Pedido{
+PedidoDTO toDTO()
}

class PedidoDTO{
}

interface DTOable{
T to DTO()
}

ConsultarPedidosUI..>ConsultarPedidosController

ConsultarPedidosController..>AutzhRegistry
ConsultarPedidosController..>AuthorizationService
ConsultarPedidosController..>UserSession
ConsultarPedidosController..>SystemUser
ConsultarPedidosController..>PersistenceContext
ConsultarPedidosController..>CatalogoRepository
ConsultarPedidosController..>Pedido
Pedido..>PedidoDTO: toDTO
Pedido..|>DTOable

PersistenceContext..>RepositoryFactory


RepositoryFactory..>CatalogoRepository

@enduml